<?xml version="1.0" standalone="no"?><!DOCTYPE svg PUBLIC "-//W3C//DTD SVG 1.1//EN" "http://www.w3.org/Graphics/SVG/1.1/DTD/svg11.dtd"><svg class="icon" width="200px" height="200.00px" viewBox="0 0 1024 1024" version="1.1" xmlns="http://www.w3.org/2000/svg"><path d="M746.666667 770.133333m-202.666667 0a202.666667 202.666667 0 1 0 405.333333 0 202.666667 202.666667 0 1 0-405.333333 0Z" fill="#FF9FA2" /><path d="M846.08 992H177.92c-32.853333 0-64.213333-13.866667-86.4-37.973333a117.674667 117.674667 0 0 1-30.506667-89.386667l33.28-384c5.333333-61.226667 55.466667-107.306667 116.906667-107.306667h605.44c60.8 0 112.213333 47.573333 116.906667 108.373334l29.44 384c2.56 32.426667-8.746667 64.853333-30.933334 88.746666a117.034667 117.034667 0 0 1-85.973333 37.546667zM211.2 437.333333c-27.946667 0-50.773333 20.906667-53.12 48.64l-33.28 384c-1.28 15.146667 3.626667 29.44 13.866667 40.746667 10.24 11.093333 24.106667 17.28 39.253333 17.28h668.16c14.933333 0 29.013333-5.973333 39.04-17.066667 10.24-11.093333 15.146667-25.386667 14.08-40.32l-29.44-384a53.76 53.76 0 0 0-53.12-49.28H211.2z"  /><path d="M746.666667 565.333333c-17.706667 0-32-14.293333-32-32V298.666667c0-111.786667-90.88-202.666667-202.666667-202.666667s-202.666667 90.88-202.666667 202.666667v234.666666c0 17.706667-14.293333 32-32 32s-32-14.293333-32-32V298.666667c0-146.986667 119.68-266.666667 266.666667-266.666667S778.666667 151.68 778.666667 298.666667v234.666666c0 17.706667-14.293333 32-32 32z"  /></svg>