<?xml version="1.0" standalone="no"?><!DOCTYPE svg PUBLIC "-//W3C//DTD SVG 1.1//EN" "http://www.w3.org/Graphics/SVG/1.1/DTD/svg11.dtd"><svg class="icon" width="200px" height="200.00px" viewBox="0 0 1024 1024" version="1.1" xmlns="http://www.w3.org/2000/svg"><path d="M661.333333 684.8m-202.666666 0a202.666667 202.666667 0 1 0 405.333333 0 202.666667 202.666667 0 1 0-405.333333 0Z" fill="#FF9FA2" /><path d="M725.333333 928H213.333333c-88.32 0-160-71.68-160-160V256c0-88.32 71.68-160 160-160h512c88.32 0 160 71.68 160 160v106.666667c0 17.706667-14.293333 32-32 32s-32-14.293333-32-32v-106.666667c0-52.906667-43.093333-96-96-96H213.333333c-52.906667 0-96 43.093333-96 96v512c0 52.906667 43.093333 96 96 96h512c52.906667 0 96-43.093333 96-96v-5.333333c0-17.706667 14.293333-32 32-32s32 14.293333 32 32V768c0 88.32-71.68 160-160 160z"  /><path d="M853.333333 672H533.333333a117.546667 117.546667 0 0 1-117.333333-117.333333v-85.333334c0-64.64 52.693333-117.333333 117.333333-117.333333h320c64.64 0 117.333333 52.693333 117.333334 117.333333v85.333334c0 64.64-52.693333 117.333333-117.333334 117.333333z m-320-256a53.333333 53.333333 0 0 0-53.333333 53.333333v85.333334a53.333333 53.333333 0 0 0 53.333333 53.333333h320a53.333333 53.333333 0 0 0 53.333334-53.333333v-85.333334a53.333333 53.333333 0 0 0-53.333334-53.333333H533.333333z"  /><path d="M618.666667 544h-21.333334c-17.706667 0-32-14.293333-32-32s14.293333-32 32-32h21.333334c17.706667 0 32 14.293333 32 32s-14.293333 32-32 32z"  /></svg>